<?xml version="1.0" encoding="utf-8"?>
<!-- Generator: Adobe Illustrator 16.0.4, SVG Export Plug-In . SVG Version: 6.00 Build 0)  -->
<!DOCTYPE svg PUBLIC "-//W3C//DTD SVG 1.1//EN" "http://www.w3.org/Graphics/SVG/1.1/DTD/svg11.dtd">
<svg version="1.1"
	 id="Capa_1" shape-rendering="geometricPrecision" text-rendering="geometricPrecision" image-rendering="optimizeQuality"
	 xmlns="http://www.w3.org/2000/svg" xmlns:xlink="http://www.w3.org/1999/xlink" x="0px" y="0px" width="300px" height="300px"
	 viewBox="0 0 300 300" enable-background="new 0 0 300 300" xml:space="preserve">
<path style="fill: #FFFFFF;" d="M197.628,106.22l11.151,1.375c-0.197,0.226-0.389,0.457-0.568,0.7c-4.992,6.761-0.71,18.398,9.574,25.988
	c9.375,6.922,20.504,8.086,26.173,3.105l2.634,11.263l3.254-7.814l7.229-4.803l-11.324-0.702c4.488-6.817,0.176-18.116-9.885-25.539
	c-8.784-6.485-19.109-7.917-25.039-3.975l-1.972-11.558l-3.724,7.603L197.628,106.22z M141.086,162.21
	c7.8,4.786,18.232,2.56,23.213-5.558l39.463-64.75c4.868-7.932,2.377-18.345-5.557-23.213c-7.801-4.786-18.232-2.556-23.213,5.561
	l-39.463,64.747C130.66,146.933,133.156,157.346,141.086,162.21z M269.238,156.98h-92.037c-3.35,5.496-10.626,20.812-30.276,20.812
	c-12.895,0-24.918-8.006-29.466-20.812H23.543v23.854h6.583c5.468,0,10.456,3.114,12.858,8.023L87.55,280h117.88l44.373-91.121
	c2.397-4.924,7.393-8.047,12.868-8.047h6.567v-23.854l0,0V156.98L269.238,156.98z M264.568,137.475l-4.986-11.889l11.891-4.985
	l4.984,11.889L264.568,137.475z M195.719,127.039l4.984,11.889l-11.89,4.984l-4.983-11.889L195.719,127.039z M222.376,91.823
	l-4.985-11.89l11.89-4.984l4.984,11.89L222.376,91.823z M35.19,121.051l11.89-4.985l4.985,11.89l-11.89,4.986L35.19,121.051z
	 M245.718,93.045c3.56,0,6.446,2.886,6.446,6.446c0,3.56-2.887,6.446-6.446,6.446s-6.446-2.886-6.446-6.446
	C239.271,95.931,242.158,93.045,245.718,93.045z M63.508,134.17c3.56,0,6.446,2.886,6.446,6.446c0,3.56-2.886,6.446-6.446,6.446
	s-6.446-2.886-6.446-6.446C57.062,137.056,59.948,134.17,63.508,134.17z M113.834,122.607l-7.982,8.063l8.59-1.229l7.631,3.664
	l-5.533-10.156c7.546-0.059,15.074-8.336,17.461-19.743c2.621-12.509-1.932-24.043-10.157-25.765
	c-0.296-0.062-0.594-0.107-0.892-0.143l7.405-8.452l-8.501,1.747l-7.839-3.195l6.226,9.936c-7.049,1.007-13.801,8.949-16.037,19.636
	C101.642,109.207,105.946,120.509,113.834,122.607z M92.942,152.203l7.547-2.863l-6.095-16.07l-6.717,5.049L92.942,152.203z
	 M65.692,80.352l5.349,14.104l6.717-5.05L73.33,77.73c13.837-6.896,20.464-23.295,14.864-38.057
	c-5.967-15.734-23.559-23.65-39.293-17.683C33.17,27.957,25.253,45.548,31.22,61.281C36.583,75.423,51.338,83.247,65.692,80.352z
	 M81.204,121.253l3.281,8.65l6.717-5.05l-3.281-8.649L81.204,121.253z M74.233,102.871l3.78,9.967l6.717-5.051l-3.781-9.966
	L74.233,102.871z"/>
</svg>
